<?xml version="1.0" standalone="no"?>
<!DOCTYPE svg PUBLIC "-//W3C//DTD SVG 20010904//EN"
 "http://www.w3.org/TR/2001/REC-SVG-20010904/DTD/svg10.dtd">
<svg version="1.0" xmlns="http://www.w3.org/2000/svg"
 width="489.000000pt" height="400.000000pt" viewBox="0 0 489.000000 400.000000"
 preserveAspectRatio="xMidYMid meet">
<metadata>
Created by potrace 1.16, written by Peter Selinger 2001-2019
</metadata>
<g transform="translate(0.000000,400.000000) scale(0.100000,-0.100000)"
fill="#000000" stroke="none">
<path d="M0 3970 l0 -30 2445 0 2445 0 0 30 0 30 -2445 0 -2445 0 0 -30z"/>
<path d="M2090 2502 c-29 -29 -50 -86 -50 -134 0 -26 -3 -28 -42 -28 -36 0
-47 6 -84 44 -79 83 -164 107 -219 64 -36 -28 -65 -92 -65 -144 0 -23 -3 -55
-6 -72 -6 -28 -9 -30 -35 -25 -38 7 -60 -11 -53 -45 5 -23 -1 -32 -33 -56 -92
-70 -165 -193 -209 -351 -20 -70 -46 -130 -97 -218 -101 -178 -81 -169 -223
-96 -66 33 -147 83 -179 110 -32 28 -71 53 -87 56 -31 6 -46 31 -54 88 -4 34
-23 51 -74 65 -81 23 -241 1 -337 -46 -51 -24 -53 -27 -53 -65 0 -66 19 -76
156 -84 175 -10 211 -25 206 -89 -3 -29 4 -39 54 -82 146 -124 305 -229 397
-261 47 -16 113 -11 162 14 87 44 223 167 338 305 31 37 58 64 61 59 7 -10 50
-312 71 -491 14 -116 14 -154 4 -269 -12 -126 -12 -134 5 -147 11 -7 24 -15
30 -17 6 -2 0 -27 -17 -64 -33 -74 -34 -111 -2 -188 14 -33 25 -61 25 -62 0
-2 -357 -3 -794 -3 -492 0 -797 -4 -801 -10 -9 -14 170 -16 2295 -18 1901 -2
2170 0 2170 19 0 5 -592 9 -1315 9 -1204 0 -1315 1 -1315 16 0 9 -16 31 -36
49 -34 32 -36 36 -45 131 l-9 99 30 23 c52 41 58 64 59 217 0 77 5 255 10 395
6 140 11 338 11 438 0 175 1 184 20 189 18 5 20 14 20 90 0 57 -5 94 -16 115
-20 39 -40 24 -24 -18 14 -37 16 -162 2 -176 -7 -7 -18 4 -35 38 -50 98 -140
178 -282 249 -36 18 -61 38 -63 49 -3 16 0 18 22 12 19 -5 55 7 136 44 116 53
194 77 270 82 l45 3 23 -130 c12 -71 25 -163 29 -203 5 -65 9 -76 34 -94 15
-11 30 -31 33 -44 10 -38 31 -29 31 13 0 38 0 38 45 41 39 2 59 -4 128 -43 71
-39 90 -45 140 -45 42 0 68 7 101 25 54 31 61 31 61 0 0 -14 5 -25 10 -25 6 0
10 11 10 25 0 14 3 25 6 25 3 0 19 -11 36 -25 29 -25 33 -25 199 -25 93 0 169
4 169 9 0 16 -41 61 -56 61 -8 0 -34 18 -58 40 -53 49 -99 54 -135 16 -18 -19
-29 -23 -60 -19 -32 4 -41 1 -54 -17 -8 -12 -20 -19 -26 -15 -7 3 -32 48 -58
98 -97 193 -210 368 -294 454 -93 94 -202 122 -259 65z m161 -20 c69 -45 151
-141 238 -282 113 -181 165 -288 148 -308 -16 -21 -83 -49 -134 -57 -36 -6
-53 -1 -119 30 -68 33 -75 39 -68 58 4 12 8 58 8 102 1 63 6 89 24 122 25 47
26 53 12 53 -5 0 -16 -12 -24 -27 -15 -27 -15 -26 -16 40 0 37 -4 67 -9 67
-15 0 -24 -166 -14 -244 14 -99 5 -116 -59 -116 -27 0 -58 -4 -68 -10 -34 -18
-47 -3 -53 63 -3 34 -12 94 -20 132 -45 198 -41 332 9 381 33 34 88 32 145 -4z
m-433 -56 c29 -15 99 -83 91 -89 -2 -2 -33 -14 -69 -27 -36 -12 -91 -36 -122
-51 -32 -16 -61 -29 -65 -29 -11 0 -3 78 13 123 29 81 85 108 152 73z m-160
-346 c37 -22 92 -62 122 -89 55 -48 55 -49 42 -83 -30 -85 -5 -185 56 -221
l35 -21 -8 -300 c-4 -166 -10 -394 -14 -508 l-6 -208 -28 -27 c-24 -24 -35
-28 -85 -28 -31 0 -70 7 -87 15 -34 17 -32 2 -20 200 6 98 2 151 -24 355 -17
132 -38 277 -47 323 -8 45 -12 87 -9 92 3 6 -1 10 -10 10 -23 0 -107 45 -129
69 -22 24 -36 27 -36 7 0 -19 46 -57 98 -80 23 -10 42 -23 42 -27 0 -15 -105
-134 -210 -240 -174 -173 -257 -201 -387 -133 -90 47 -231 143 -316 213 -77
64 -80 81 -25 138 62 64 92 64 166 -1 48 -41 109 -79 256 -155 113 -59 158
-71 108 -30 l-24 19 55 82 c75 113 109 186 141 296 29 103 51 150 107 233 45
67 124 139 151 139 11 0 50 -18 86 -40z m-1041 -416 c41 -26 39 -53 -6 -97
l-40 -41 -26 24 c-17 16 -25 34 -25 56 0 44 -18 53 -22 12 -4 -45 -38 -53 -38
-9 0 36 -17 42 -22 9 -3 -21 -9 -23 -78 -26 -149 -6 -186 21 -77 57 122 41
283 48 334 15z m1191 -1193 c-4 -71 -2 -98 6 -95 7 3 17 -11 24 -30 7 -19 21
-36 32 -39 11 -3 20 -12 20 -21 0 -13 -12 -16 -63 -16 l-63 0 -42 108 c-45
114 -47 126 -32 166 9 24 15 26 66 26 l57 0 -5 -99z"/>
</g>
</svg>
